<?xml version="1.0" encoding="UTF-8"?>
<svg id="Layer_1" data-name="Layer 1" xmlns="http://www.w3.org/2000/svg" viewBox="0 0 222.69 240.17">
  <path d="M139.77,120.58s-.01.01-.02.02h0s.02-.02.02-.02ZM145.17,117.88s0,0-.01,0c-.01.07-.03.13-.04.2.06.1.11.22.15.34.03-.18,0-.36-.1-.53ZM111.35,139.12c-.03.37-.05.65-.07.83.15-.16.3-.31.45-.46-.14-.12-.26-.24-.38-.37ZM173.61,154.21h.02-.02ZM111.35,139.12c-.03.37-.05.65-.07.83.15-.16.3-.31.45-.46-.14-.12-.26-.24-.38-.37ZM173.61,154.21h.02-.02ZM178.54,209.58l-.1.27c.11-.13.23-.27.34-.41l-.24.14ZM182.7,202.54l-.08.68c.18-.38.35-.76.52-1.15l-.44.47ZM183.84,162.95l.03.22.11.13c-.04-.12-.09-.24-.14-.35ZM185.44,194.39l.02.39c.04-.2.09-.4.12-.6l-.14.21ZM186.21,186.6l.31.97c.06-.6.1-1.2.14-1.79l-.45.82ZM186.79,178.64l-.27.58.29.75c0-.45-.01-.89-.02-1.33ZM167.05,218.16l-.47.12M167.1,218.15l2.17-.56M173.61,154.21h.02-.02ZM57.58,183.61l-.09.09c.25-.02.5-.03.74-.02v-.11c-.22.02-.43.03-.65.04ZM58.23,183.57h.07s-.03,0-.07,0ZM113.04,228.05h0c-.09-.32-.19-.65-.31-.99l.28,1.03.19.69c.12.42.18.85.21,1.28l.11-.02c-.09-.54-.24-1.2-.48-1.99ZM147.78,188.38s-.07.03-.1.05l.17-.03-.07-.02ZM147.85,188.4l-.17.03s.06-.04.1-.05l.07.02ZM81.9,116.22c-.18.09-.37.16-.56.23-.56.21-1.14.4-1.73.55-.26.08-.52.15-.79.2.14-.03.28-.07.42-.11.6-.16,1.49-.43,2.55-.83.04,0,.07-.02.11-.04ZM78.36,117.3s.11-.02.3-.06c-.14.04-.27.07-.41.1.04-.02.08-.03.11-.04ZM106.71,237.06s-.03.04-.05.06c.02-.02.03-.04.05-.06h0ZM101.59,23.42c-1.61,4.28-2.17,9.79,1.1,13.42,2.2,2.45,5.38,2.38,7.78.24,1.79-1.46,3.15-3.41,4.72-5.07,1.17-1.36,3.66-2.26,4.3-.11.47,2.84-3.06,4.02-4.09,6.29-2.45,5.65,12.18,8.04,14.07-4.72.39-2.46.29-5.03-.97-7.17-2.15-3.79-7.26-5.04-11.1-3.17-1.25.56-2.32,1.48-3.3,2.49-.86.87-2.1,2.2-3.22,2.16-1.49-.06-1.58-1.7-.67-2.86.73-.99,1.9-1.85,2.79-2.84,1.33-1.4,2.2-3.42,1.83-5.3-.32-2.2-2.69-3.1-4.68-2.63-4.26.99-6.99,5.38-8.55,9.22l-.02.06ZM138.79,29.16c2.12-.9,3.59-3.11,3.14-5.4-.71-3.21-4.8-6.36-6.91-8.54-1.67-1.49-.13-2.06,1.3-2.87,2.44-1.19,4.87-4.19,2.31-6.5-1.43-1.17-3.37-1.31-5.14-1.2-6.19.35-18.56,5.05-14.97,12.71.64,1.12,1.75,1.93,2.95,2.08.86.12,1.78-.1,2.6-.49,1.37-.58,2.46-1.91,3.78-1.15.47.31.84.9,1.15,1.43,1.04,1.94,2.1,4.16,3.01,5.87,1.36,2.68,3.33,5.67,6.73,4.09l.06-.03ZM168.65,28.93c-.39-.59-1.25-1.05-1.71-1.55-.07-.08-.11-.14-.1-.23.04-.11.16-.12.32-.13,2.08.1,3.8,1.04,5.43-.67,1.91-1.73,2.52-4.2,1.62-6.55-1.44-4.26-4.19-8.1-7.07-11.65-.76-.92-1.62-1.99-2.79-2.33-1.75-.47-3.34.87-4.6,1.92-1.03.93-2.36,2.15-2.31,3.53.06,1.33,1.06,2.37,1.82,3.39.19.38,2.62,2.72,1.74,2.68-.45-.02-1.79-.77-2.55-1.05-1.21-.47-2.44-.72-3.57-.41-2.19.59-3.77,3.3-3.46,5.53.21,1.56,1.41,2.79,2.45,3.89,1.64,1.7,3.17,3.09,4.9,4.57,1.8,1.55,3.9,3.11,6.39,3.02,1.9,0,4.86-1.8,3.53-3.92l-.03-.04ZM176.8,153.8c3.95,1.85,7.26,3.74,7.47,3.91l.46.42.51,4.74,3.03,3.47-.66,5.06,2.07,4.03-1.76,3.82,1.58,4.04-1.85,3.34,1.54,4.72-2.27,3.3.21,5.06-2.99,3.25-.57,5.03-3.64,2.33-1.9,4.81c-.95.37-5.59,2.1-10.93,3.02h-.02s0,.01-.01.01h-.02c-1.97.34-4.05.56-6.06.56-4.56,0-8.62-1.43-12.34-4.47-2.13-1.75-3.74-4-4.88-6.25-.1-.13-.19-.26-.29-.39-2.25-3.12-2.48-10.34-.39-17.52.11-.4-.22-.77-.62-.72-.72.1-1.16.13-1.21.13-.16,0-.32-.03-.46-.12-2.16-1.36-8.29-4.84-10.89-4.84h-.08c-4.09.13-14.17,7.71-17.74,10.64-.33.39-.83.58-1.52.58-.44,0-.95-.08-1.54-.23-.19-.05-.37.13-.33.32.79,3.09,1.88,5.7,2.99,8.21.09.21.35.26.52.13.13-.1.26-.18.37-.19.28-.01.53.11.69.33.15.22,3.78,5.43,4.34,12.49.48,6-2.22,10.62-3.51,12.47h-.01c-.36.52-.62.82-.66.87l-.02-.02c.06,1.46-.41,2.95-1.35,4.23l-.31.43c-.95,1.32-1.31,1.81-2.71,2.84-1.58,1.16-3.93,1.42-5.71,1.42-1.34,0-2.36-.15-2.46-.17v-.02c-.23-.01-.47-.02-.71-.04l-1.53,1.34h-.3c-.29,0-4.07-.05-7.11-2.79l-.82.76-.38-.05c-.19-.03-4.45-.71-6.63-4.5l-1.31,1.22-.48-.24c-.16-.07-3.58-1.8-5.18-5.57l-1.04.97-.49-.25c-.16-.08-3.6-1.89-4.85-5.85l-1.17,1.06-.52-.39c-.15-.12-3.24-2.5-4.21-6.27l-.75.7-.52-.4c-.13-.1-2.95-2.27-4-6.47l-.87.8-.53-.57c-.1-.1-2.25-2.44-3.16-7.07l-1.12,1.04-.44-1.02c-.03-.06-3.74-8.84-1.94-14.86.21-.7.98-2.37,1.97-3.86,1.76-2.61,4.61-2.93,4.8-2.95l-.09.09c.25-.02.5-.03.74-.02v-.11c-.22.02-.43.03-.65.04,3.79-3.99,8.03-6.24,12.65-6.7,3.6-.36,7.47.41,11.39,2.24,0-.02,0-.03.02-.04.05-.09.11-.18.18-.27.66-.83,1.84-1.04,3.31-.58.34.11.69.27,1.04.47.08.05.18-.04.14-.13-.46-.93-.6-1.65-.38-2.1.02-.05.05-.1.08-.15.16-.24,3.77-5.67,9.56-9.75-3.53-2.59-5.08-5.28-5.17-5.44-.05-.09-.1-.37-.11-.48-.04-.36-.4-3.97-.35-8.86-.55-.56-1.04-1.18-1.48-1.83-3.49,2.14-5.96,2.69-7.6,2.69-1.41,0-2.2-.42-2.46-.59,0-.01-.01-.01-.01-.01-1.44-.71-2.99-3.07-3.96-5.37-1.69-.36-3.62-.75-5.63-1.09-7.75-1.35-13.24-1.58-15.93-.68-.85,1.78-5.38,10.37-12.98,10.9-.26.02-.52.03-.77.03-3.42,0-6.19-1.55-7.38-2.34-.43.47-.92.92-1.48,1.35-2.2,1.7-5.11,2.8-8.2,3.1-.42.04-.84.06-1.25.06-2.99,0-5.88-1.04-7.9-2.87-1.63-1.48-2.53-3.32-2.53-5.16,0-2.1.78-3.9,2.27-5.23-2.03-2.66-3.31-5.9-3.36-8.74-.03-1.71.81-3.56,2.31-5.09,1.55-1.58,3.64-2.68,5.99-3.2-1.66-.81-3.84-2.01-6.44-3.81-7.29-5.05-11.15-11.14-11.15-17.64s3.5-9.39,6.98-9.73c3.53-.35,6.18,3.32,9.53,7.96,3.28,4.55,7.37,10.21,13.6,13.91,6.51,3.86,23.18,7.32,33.97,9.25.68.12.97-.82.34-1.11-.02-.01-.04-.02-.06-.03-5.84-2.72-10.32-7.03-13.34-12.81-.71-.08-1.43-.2-2.16-.35-7.4-1.53-11-7.87-9.47-15.11.06-.27.12-.53.18-.79l-.04.03-4.68-6.89c-.2-.29-.18-.67.04-.94.12-.15,1.54-1.85,4.22-4.36.32-.3.27-.81-.1-1.04-3.81-2.38-12.6-8.61-12.1-15.37.18-2.45,2.28-5.34,6.24-8.59,12.25-10.06,39.05-20.88,52.86-19.19,1.25.15,2.64.41,4.17.81.66.17,1.35.26,2.03.24.54,0,1.18-.02,1.92-.02.25-.01.47-.19.52-.44.15-.75.39-1.5.61-2.23.87-2.63,1.83-5.31,3.46-7.58-.63,1.71-.83,3.51-1,5.3-.11,1.45-.19,2.92-.12,4.37.01.32.27.56.59.57,3.08.09,18.2.76,25.48,5.78,2.32,1.59,5.34,4.29,8.22,9.03.72-.7,2.21-.93,3.15-.43.82.39,1.68,1.22,2.45,1.56,1.15.53,1.18-.54.82-1.31-.45-1.07-1.34-2.06-2.14-2.93-2.75-2.99-7.04-5.81-6.59-10.24.2-2.05,1.21-4.15,2.77-5.48,1.43-1.27,3.39-1.3,4.81-.04,4.61,4.53,7.69,11.13,9.57,17.27.83,2.75,1.21,6.17-.04,8.78l-.02.05c-1.46,2.85-6.73,4.76-9.92,3.58.77,2.29,1.33,4.38,1.72,6.06.68-.92,1.91-1.76,2.66-2.31,4.75-3.28,7.92,6.31,9.2,11.07.29,1.5.84,2.33,2.39,1.93,1.26-.32,1.51-1.63,1.13-2.73-.83-2.89-2.02-6.14-3.03-9.07-.46-1.33-1-2.83-1.49-4.26-.76-1.98-.96-4.27.47-5.99,2.42-3.03,6.99-4.05,9.28-.41.79,1.13,1.32,2.49,1.8,3.79,2.92,8.06,5.81,16.11,8.72,24.17,1.05,2.98,2.48,6.68.26,9.46l-.04.04c-2.28,2.84-6.59,2.34-9.02.14-1.22-1.08-1.75-2.53-2.34-4.03-.48-1.18-1.01-3.15-2.54-3.2-1.78.01-2.63,1.29-2.05,2.93.68,2.42,1.85,5.02.88,7.49-1.31,2.76-6.83,3.37-9.25,1.96-.84-.53-1.78-1.92-2.3-2.77-.7,1.14-1.49,2.18-2.37,3.07-3.36,3.4-7.67,5.72-12.1,6.87-.19.05-.23.31-.06.41,1.57.98,2.72,2.64,3.23,3.47,4.86-.58,11.55-.8,13.26,2-.01.07-.03.13-.04.2.06.1.11.22.15.34.03-.18,0-.36-.1-.53,0,0,0,0-.01,0,.12-.47.26-1,.42-1.61.66-2.4,1.74-4.87,3.42-6.65,3.24-3.73,9.68-3.54,14.26-1.35,4.66,2.1,10.36,8.2,8.66,13.69l-.02.05c-.84,2.58-3.77,3.78-6.18,2.54-2.32-1.09-3.88-3.25-6.01-4.6-1.4-.98-2.96-1.72-4.15-.59-.68.66-.93,1.81-1.01,2.54,4.13,1.5,7.39,3.84,8.13,8.11.44,2.53.02,4.64-.94,6.47-.06.12-.12.24-.19.35,5.05,1.89,4.65-4.93,5.95-7.06,1.03-2,3.66-2.6,5.54-1.43,2.12,1.21,3.04,3.69,3.35,6.01.69,5.11-.57,11.68-5.69,14.08l-.05.03c-3.27,1.49-7.67,1.23-11.03.19-1.94-.67-4.8-2.31-6.22-3.82-.12-.14-.19-.27-.22-.39-.12.07-.23.15-.34.23-1.32.89-2.68,1.81-3.92,2.76-.54.41-1.03.9-1.45,1.43,4.83,1.64,9.91,2.65,14.98,3.23,17.08,1.91,33.75-2.56,45.77-15.26-8.39,9.76-19.48,15.11-31.42,16.98ZM173.61,154.22s.01-.01.02-.01h-.02ZM150.82,152.86l5.21,8.37c1.48-2.73,2.93-4.66,4.49-6.01.35-.31.71-.58,1.08-.83-2.62-.18-5.24-.51-7.85-.96-.99-.18-1.96-.36-2.93-.57ZM142.36,121.24c-.99,0-1.89.58-2.31,1.47-.43.93-.83,1.98-1.17,3.14-.64,2.21-.89,4.38-.7,6.05.42.53.8,1.01,1.12,1.43,2.83-2.38,6.11-4.28,9.7-5.13-3.39,1.41-6.28,3.79-8.61,6.56,0,.01.01.01.01.02l-.79.93c-.1.12-.29.11-.39-.01-.78-1.03-3.92-5.06-6.57-7.67-1.72-1.7-3.63-2.45-6.36-2.51-.35-.01-.7.02-1.04.08-1.18.19-2.13,1.07-2.41,2.24-.18.76-.36,1.56-.52,2.36.7-.54,1.4-1.07,2.11-1.6.03-.03.09-.02.11.01.03.04.02.09-.02.12-.78.77-1.57,1.54-2.36,2.3-4.64,4.44-9.38,8.72-13.05,13.98-.67,1.04-1.18,2-1.36,3.09-.14,1.81.79,3.91,2.35,4.88,3.69,1.66,11.67-4.4,14.7-6.66.07-.05.17.05.1.12-1.54,1.54-3.19,2.97-4.93,4.27-1.8,1.3-3.74,2.65-5.87,3.38.01.07.01.14,0,.22-.29,4.58,2.57,5.38,6.51,5.15,1.84-.13,3.71-.44,5.51-1.01,1.1-.35,2.79-1.07,3.97-1.59.12-.05.21.12.1.19-1.04.68-2.7,1.55-3.69,1.98-1.96.87-4.2,1.45-6.43,1.66,1.86,2.47,5.39,3.18,6.91,3.37l1.55.2c5.94.41,9.12-1.27,12.17-6.43,1.66-2.82,4.44-8.19,4.47-8.24.64-1.31,1.61-2.5,2.8-3.42,1.27-.97,2.65-1.91,3.99-2.81.22-.15.44-.3.66-.45,3.33-2.25,6.45-4.48,7.86-7.45.72-1.51,1-3.2.66-5.19-.53-3-2.54-5.1-6.63-6.7-1.66-.65-3.67-1.22-6.06-1.73-.78-.16-1.59-.29-2.38-.38-1.36-.15-2.67-.21-3.71-.22ZM146.86,151.89s-.01-.01-.02-.01c-.56-.16-1.15.1-1.42.61-.55,1.04-1.23,2.32-1.9,3.54-.14.25.18.5.39.3,1.09-1.01,2.12-2.09,3.26-3.4.3-.36.14-.91-.31-1.04ZM112.14,133.32c.04-.18-.19-.28-.3-.14-.91,1.14-1.52,2.25-1.52,3.29,0,.84.26,1.64.74,2.3.1.14.32.08.34-.09.11-.96.39-3.29.74-5.36ZM111.35,139.12c-.03.37-.05.65-.07.83.15-.16.3-.31.45-.46-.14-.12-.26-.24-.38-.37ZM129.05,117.86s-.01,0-.01.01h-.01c-.7.11-1.37.23-1.99.36l-.11.02c-.37.07-.7.29-.89.62-.71,1.22-1.44,2.99-2.12,5.12-.05.14.07.27.22.23.65-.16,1.41-.29,2.18-.27,3.13.07,5.42.98,7.43,2.96.93.92,1.89,1.97,2.77,3,.12.14.36.07.38-.12.08-1.35.35-2.82.78-4.29.5-1.75,1.23-3.48,2.07-4.9,0-.01,0-.02.02-.02.62-1.05,1.31-1.93,2.03-2.51.24-.2.15-.59-.15-.65-3.17-.65-8.47-.24-12.6.44ZM126.19,113.2c-.1,0-.2.01-.29.02-3.19.42-7.64,3.17-10.72,13.9-1.13,3.95-1.75,7.86-2.06,10.37-.03.23.24.36.41.2.28-.27.56-.53.84-.8,1.77-1.63,3.6-3.2,5.46-4.72.39-.32.66-.76.75-1.25.27-1.43,2.75-14.01,6.6-15.31.54-.19,1.36-.24,2.23.48.06.06.15.08.23.07h.01c.24-.03.36-.3.21-.49-.91-1.18-2.26-2.47-3.67-2.47ZM121.77,49.38c-7.17-2.32-14.8-1.8-18.42-1.35,3.74,2.44,7.8,5.69,12.1,9.99,5.89,5.88,10.09,11.61,11.62,13.79.35.51.82.93,1.36,1.24l7.35,4.13c.33.19.73.26,1.11.19.08-.02.17-.02.25-.05.2-.08.49-.11.39-.71,0,0-1.36-6.13-3.24-11.05h-.01c-.68-1.78-1.48-3.62-2.41-5.42-1.47-2.83-3.26-5.56-5.45-7.84-1.28-1.34-2.88-2.35-4.65-2.92ZM132.88,77.35l-6.21-3.49s-.05-.03-.08-.05l-17.77-10c.1,1.44.24,3.98.29,6.99l15.32,5.45.07.03,6.11,2.17c.75.27,1.59.15,2.24-.31l.07-.05c.26-.19.24-.58-.04-.74ZM95.98,43.99c1.77.78,3.65,1.75,5.63,2.95.33.2.72.28,1.1.23,3.01-.41,9.63-1,16.37.5.2.05.28-.23.1-.31-7.05-2.89-17.02-3.52-23.15-3.61-.14,0-.18.19-.05.24ZM40.98,83.64c.67-.58,1.39-1.19,2.16-1.82-1.01-.59-2.65-1.61-4.23-2.83-1.56-1.19-6.29-4.82-4.74-8.85,2.75-7.2,15.97-13.41,23.6-16.48,9.5-3.81,21.84-7.26,27.99-6.39,7.45,1.06,22.42,13.11,26.7,16.65.34.29.7.54,1.08.75l10.32,5.81c.12.06.24-.07.16-.18-5.11-6.76-17.93-21.95-33.02-26.5-.17-.05-.34-.1-.51-.15-1.54-.43-3.09-.76-4.67-.95-6.19-.76-15.84,1.13-26.49,5.17-9.95,3.79-19.37,8.9-25.18,13.67-3.57,2.92-5.53,5.51-5.68,7.49-.28,3.82,3.22,7.64,6.2,10.17,2.6,2.2,5.25,3.82,6.31,4.44ZM102.68,61.57v.02c1.73.04,3.51.12,5.33.27l.64.07s.02,0,.03.02v-.04s-.06-.01-.06-.01c-5.63-4.45-16.91-12.83-23-13.7-5.97-.85-18.12,2.57-27.5,6.34-17.45,7-21.95,12.99-23.07,15.93-1.3,3.38,3.01,6.69,4.43,7.77,1.73,1.32,3.51,2.41,4.44,2.95.87-.69,1.8-1.4,2.79-2.13-3.16-1.82-6.71-4.66-7.83-6.06-.51-.63-.56-1.54-.13-2.26,2.33-3.84,10.25-8.82,20.66-13,10.42-4.18,21.24-6.76,25.73-6.12,4.66.66,12.99,6.52,17.54,9.95ZM85.01,52.55c-4.34-.61-14.96,1.93-25.25,6.06-10.23,4.11-17.98,8.94-20.21,12.62-.23.38-.2.85.07,1.19,1.09,1.36,4.82,4.31,7.93,6.04,1.86-1.33,3.94-2.71,6.21-4.06,10.19-6.11,26.34-12.94,47.35-12.83-4.05-2.99-11.87-8.42-16.1-9.02ZM40.59,94.29c.21-.51.44-1.01.69-1.48.05-.1.05-.21-.01-.31l-.72-1.16h-.01s-.01-.03-.01-.03c-.14-.2-.2-.43-.2-.65,0-.3.11-.6.34-.82,2.91-2.88,8.04-7.4,15.36-11.77.62-.37,1.26-.75,1.93-1.12,1.33-.75,2.76-1.5,4.28-2.25.2-.09.4-.19.59-.28.06-.03.13-.06.19-.09.35-.17.72-.34,1.09-.51,1-.46,2.05-.92,3.13-1.36.21-.09.44-.18.66-.27.67-.27,1.36-.54,2.06-.8.23-.09.47-.18.7-.26.21-.08.42-.15.62-.22.27-.1.54-.19.82-.29.24-.08.48-.16.73-.25,3.7-1.23,7.75-2.31,12.13-3.09.39-.07.78-.14,1.18-.21.12-.02.24-.04.37-.06.07,0,.14-.02.21-.03.37-.06.74-.12,1.12-.17.03-.01.07-.01.11-.02,1.07-.15,2.17-.29,3.28-.41h.01c1.02-.11,2.06-.2,3.12-.27.16-.01.32-.02.48-.03.09-.01.18-.02.27-.02.24-.02.47-.03.71-.04.37-.02.74-.04,1.11-.05.3-.02.6-.03.9-.04.17,0,.34-.01.51-.01.75-.02,1.5-.03,2.25-.03.98,0,1.96.02,2.95.05.61.02,1.11.51,1.13,1.12.09,2.09.18,4.96.13,7.94,0,.05,0,.09-.01.12h0c-.18,11.03-1.88,14.08-2.4,14.75-.85,1.09-2.68,2.25-4.95,3.27-2.28,1.02-5,1.9-7.62,2.44-.22.05-.44.09-.65.13-.11.02-.22.05-.33.06-.18.04-.35.06-.53.09-.11.02-.22.04-.33.06-.08.01-.16.02-.24.03-.41.06-.81.11-1.21.14-.21.02-.41.04-.62.05-.19.01-.37.02-.56.03h-.13c-.17.01-.33.01-.5.01-1.1,0-2.03-.12-2.62-.34-2.1-.79-4.63-3.42-6.87-5.73-.26-.27-.52-.54-.77-.8-.59-.6-1.16-1.18-1.73-1.72-.4-.38-.8-.75-1.21-1.08-.12-.1-.24-.2-.36-.3-.02-.01-.03-.02-.04-.03-1.32-1.04-2.65-1.77-4.09-1.97-.3-.04-.62-.07-.92-.07-1.29,0-2.66.28-3.71,1.16-.48.4-.96.94-1.29,1.36-.18.22-.09.54.16.65.49.22.96.45,1.43.71.24.13.53.11.74-.07.66-.57,1.77-1.23,3.21-1.02,1.97.28,4.12,2.52,6.62,5.1,2.43,2.52,5.18,5.37,7.86,6.38,5.39,2.03,19.85-2.21,23.44-6.86,1.82-2.36,2.85-8.06,2.97-16.5.08-4.81-.16-9.25-.29-11.24-.02-.25-.22-.45-.47-.47-23.41-1.52-41.25,5.85-52.16,12.37-9.72,5.81-15.79,11.97-17.79,14.15-.2.22-.23.56-.06.81l2.55,3.74c.32.48,1.05.41,1.27-.12ZM84.14,68.39c-4.45.85-8.56,2-12.29,3.31l-8.87,12.13c.89-.42,1.94-.63,3.13-.63.35,0,.71.03,1.06.08,1.63.23,3.08,1.02,4.51,2.14l12.46-17.03ZM73.29,86.82c.57.54,1.15,1.11,1.73,1.72l15.46-21.13c-1.13.13-2.23.28-3.32.45l-13.87,18.96ZM101.65,89.29c.32-.42,1.89-2.94,2.17-12.84l-13.16,17.99c4.86-1.17,9.64-3.4,10.99-5.15ZM56.58,78.84l-4.5,6.14c.23-.01.47-.02.7-.02.61,0,1.24.03,1.88.1l6.36-8.69c-1.6.83-3.09,1.66-4.44,2.47ZM89.17,128.09c9.27-.95,22.48-5.06,28.55-10.77h0c1.38-2.07,3.03-3.76,5.03-4.76.32-.15.27-.62-.07-.7l-3.48-.83s3.81.14,7.31-.28c5.21-.62,9.27-2.75,13.21-6.73,1.19-1.21,2.22-2.73,3.04-4.43,1.51-3.15,2.3-6.94,2.11-10.63-.19-4.08-1.55-7.37-3.82-9.26-.96-.8-2.19-1.08-3.65-.83-.08,0-.17.03-.25.04-3.91.81-8.91,5.19-12.28,10.78h0c-.41.69-1.46.39-1.45-.4v-10.91c0-.49-.31-.93-.77-1.1l-13.52-4.81c.04,7.24-.52,16.4-3.32,20.03-3.23,4.2-14.1,7.97-21.19,7.97-1.57,0-2.96-.19-4.04-.59-3.01-1.13-5.9-4.12-8.44-6.76-2.2-2.28-4.27-4.43-5.72-4.64-.51-.07-.96.05-1.32.23-.3.15-.32.56-.04.74,1.65,1.13,3.19,2.44,4.59,3.81-2.95-1.99-6.1-3.44-9.35-4.66-1.07-.43-2.14-.78-3.21-1.02-4.97-1.15-9.86-.21-13.01,3.74-.68.85-1.27,1.84-1.77,2.97-1.18,2.7-1.95,5.78-1.6,8.74.64,5.69,5.29,8.77,10.72,9.16,2.27.19,4.54,0,6.77-.5,3.04-.43,6.03-1.36,8.98-2.5-4.37,2.88-9.18,4.75-14.32,4.66,6.34,11.28,18.55,16.07,36.31,14.24ZM15.91,146.01c1.52,1.35,3.98,2.9,6.98,2.58,5.94-.63,12.29-4.04,12.37-8.13-.17-.6-.23-1.24-.2-1.88-4.51,4.66-10.68,8.21-16.95,4.41-3.16-2.06-5.86-6.52-4.15-10.27.61-1.21,1.89-2.41,3.13-3.22-1.71.51-3.22,1.38-4.37,2.55-1.21,1.23-1.89,2.67-1.86,3.96.06,3.32,2.14,7.43,5.05,10ZM32.03,149.42c0-.66-.19-1.3-.56-1.91-2.47,1.39-5.49,2.33-8.41,2.64-.32.03-.65.05-.97.05-2.5,0-4.98-1.03-7.22-3.02-.43-.37-.83-.77-1.22-1.19-1.13,1.03-1.71,2.38-1.71,4.02,0,1.4.72,2.82,2.02,4,1.99,1.8,4.96,2.7,7.95,2.4,6.27-.6,10.12-4.49,10.12-6.99ZM79.79,146.33c-.13-1.84-.53-4.17-1.34-6.88-.65-2.19-1.4-4.05-2.17-5.54-.84-1.62-2.4-2.75-4.2-3.05-8.8-1.45-34.22-6-42.77-11.07-6.51-3.86-10.7-9.67-14.07-14.34-3.06-4.24-5.47-7.58-8.11-7.32-3.32.33-5.56,3.62-5.56,8.17,0,12.57,15.7,19.7,20.01,21.42,2.76-.58,5.63-.47,8.54-.62-3,.76-6.05,1.16-8.96,2.14-2.33.79-5.83,2.56-6.14,5.39-.23,3.69,2.95,7.34,6.54,8.13,3.9.96,7.71-1.01,10.6-3.59,1.49-1.31,2.48-2.51,3.69-3.88l2.19-2.6c-.06.14-.97,2.5-1.21,3.37-.31,1.15-.34,2.43-.14,3.62.13.96.78,1.77,1.47,2.46,1.17,1.13,2.65,1.93,4.28,2.07,2.45.08,4.88-2.16,6.55-3.83-.48.78-1.03,1.53-1.64,2.22-1.55,1.8-3.87,3.62-6.45,2.94-1.76-.54-3.33-1.59-4.49-3.01-.64,1.57-1.94,2.98-3.61,4.15.52.86.8,1.79.8,2.74s-.32,1.91-.9,2.85c1.16.76,3.9,2.24,7.08,2.01,7.35-.52,11.76-10.18,11.8-10.28.09-.19.24-.34.43-.41,6.01-2.39,23.32,1.63,27.78,2.74ZM87.41,148.12c-1.43-3.06-1.86-6.81-1.27-11.07.37-2.6,1.04-4.88,1.58-6.43.14-.4-.18-.8-.6-.77-1.68.12-3.32.18-4.91.18-2.12,0-4.17-.11-6.12-.33-.31-.04-.5.3-.31.54,1.68,2.06,3.16,5.35,4.18,8.76,1.37,4.6,1.98,9.77.89,12.1,1.25,0,3.29-.4,6.29-2.15.29-.17.41-.53.27-.83ZM94.25,129.67c.16-.31-.1-.66-.44-.61-1.14.18-2.28.34-3.41.47-.38.05-.7.29-.84.65-1.14,2.99-4.1,12.19.05,18.7.12.18.4.11.41-.11.28-6.19,1.3-13.59,4.23-19.1ZM100.56,167.69c7.45,3.32,16.98,2.66,27.72-1.88l-1.5-.19c-3.96-.51-7.06-2.26-8.5-4.8-.01-.02-.01-.04-.02-.06-.16.01-.33,0-.49,0-3.81-.08-5.66-2.65-5.85-6.18-.27.03-.54.05-.81.05-3.36-.04-5.58-4.55-4.74-7.51.65-2.13,2.06-3.87,3.45-5.55.27-.32.55-.63.83-.94-1.2-1.04-1.9-2.55-1.9-4.16,0-2.17,1.65-4.21,3.64-6.25.31-.33.53-.73.64-1.18.6-2.46,1.39-5.05,2.42-7.46-5.32,3.16-11.41,5.37-17.76,6.75-.77.16-1.42.67-1.79,1.36-1.24,2.33-3.84,8.39-4.27,18.84-.22,5.35.04,9.9.17,11.53.03.31.14.62.32.88.9,1.28,3.57,4.58,8.44,6.75ZM83.11,180.8c.11.09.41.38.79.85.83,1.02,2.3,3.31,2.82,7.07.1.76.81,1.32,1.58,1.21.83-.11,1.21-.91,1.21-1.65,0-.11,0-.22,0-.32v-.07c0-.4-.03-.79-.06-1.16-.08-.86-.21-1.66-.42-2.39-.24-.88-.58-1.69-1.01-2.41-.08-.13-.17-.27-.25-.39l-.04-.05c-.19-.28-.39-.53-.6-.76l-.21-.23c-.89-.9-1.73-1.24-2.06-1.34-.62-.19-1.75-.42-2.3.27-.04.06-.08.1-.1.15-.17.29-.22.54.66,1.22ZM90.96,182.76h0s-.07-.08-.07-.08c-.43-.39-1.15-.64-1.75-.64.04.06.07.13.1.2.03.06.06.13.09.19.03.07.06.14.09.21.06.14.12.28.17.41.06.16.12.32.17.48,0,.01.01.02.01.04.06.17.11.34.16.52.22.79.37,1.65.44,2.55,0,.1.02.19.03.29,0,.09.01.19.02.28.01.2.02.4.02.6.33,1.11.62,2.26.88,3.42.17.75.74,1.26,1.41,1.26h.13c.12.01.27.01.34.01.12-.02.19-.05.22-.07.02-.01.03-.02.03-.03.09-.06.16-.16.2-.28h0c.03-.1.04-.2.02-.31-.25-1.89-.63-3.69-1.13-5.33h-.01c-.18-.55-.36-1.06-.53-1.53-.2-.53-.4-1.02-.58-1.41v-.02s-.03-.04-.04-.05l-.02-.05c-.19-.37-.33-.58-.4-.66ZM55.6,201.91l8.27-7.72s-3.95-3.27-4.12-3.29c-3.57-.66-5.39.59-6.29,2.34-.63,1.76-.81,2.31-.6,6.31h0c.18,1.42.51,2.69.8,3.61.04.16.09.3.13.44l.05-.04.57-.54,1.19-1.11ZM65.1,193.61l1.65-1.08-.62-.24c-.96-.38-2.36-.92-3.17-1.14-.41-.12-1.64-.43-1.64-.43l3.78,2.89ZM60.04,208.86l11.57-10.8-4.78-4.12-1.3.85-9.16,8.54-.69.65c.09.66.22,1.28.36,1.85.6,2.4,1.53,4,2.09,4.81l.76-.71,1.15-1.07ZM72.9,197.54l2.22-.71-.65-.39c-1.65-.98-3.28-1.92-4.9-2.65-.48-.21-1.9-.79-1.99-.82l5.32,4.57ZM65.27,215.07l13.47-12.57-3.8-4.32-1.75.55-12.2,11.38s-.77.81-.77.81c.06.37.13.65.22.99.69,2.55,2.13,4.23,2.89,4.97l.8-.74,1.14-1.07ZM79.97,202.04l1.87-.68-.52-.37c-1.2-.88-2.39-1.73-3.57-2.49-.47-.3-1.86-1.15-1.95-1.2l4.17,4.74ZM71.07,220.81l14.36-13.07-3.82-4.99-1.36.49-13.9,12.97-.86.81c.03.23.07.47.13.69.59,2.49,2.33,4.36,3.19,5.16l1.1-1,1.16-1.06ZM86.7,207.38l2.42-.1-.64-.56c-.17-.15-.59-.51-.59-.51-1.1-.95-2.22-1.92-3.39-2.8-.45-.34-1.8-1.31-1.89-1.37l4.09,5.34ZM77.29,226.04l13.98-13.04-2.6-4.47-1.86.07-14.56,13.26-.9.82c.04.21.1.42.16.62.79,2.59,2.74,4.15,3.64,4.74l.98-.91,1.16-1.09ZM92.52,212.71l2.37.05-.58-.6c-.93-.94-1.93-1.9-3.05-2.95l-1.54-1.34,2.8,4.84ZM84.11,230.77l12.66-11.8-2.42-5-1.79-.03-14,13.06-.9.84c.07.21.15.42.24.62,1.06,2.42,3.04,3.88,3.93,4.44l1.1-1.02,1.18-1.11ZM97.98,218.65l1.87-.32-.37-.45c-.8-.98-1.63-2.02-2.58-2.99-.31-.31-1.23-1.17-1.35-1.28l2.43,5.04ZM91.72,234.77l9.76-9.11-2.21-5.98-1.18.2-12.58,11.73-.94.88c.11.2.22.4.34.58,1.51,2.34,4.06,3.16,4.99,3.39l.55-.51,1.27-1.18ZM102.71,225.43h1.91l-.28-.5c-.73-1.33-1.56-2.78-2.65-4.17-.29-.36-1.19-1.4-1.25-1.46l2.27,6.13ZM105.67,231.86l-1.42-5.2h-1.55l-9.39,8.76-.93.88c.46.4.95.74,1.43,1.01,1.79,1.02,3.57,1.24,4.24,1.28l.07-.06,1.54-1.36,6.01-5.31ZM106.54,233.18l-4.67,4.13c.28-.01.55-.03.8-.05,1.42-.16,2.44-.65,3.03-1.44.51-.69.79-1.58.84-2.64ZM111.69,229.2l-.47-1.73h.01c-2.48-7.38-9.55-16.41-19.88-25.29-10.63-9.14-21.61-15.26-29.68-16.71,0,0-1.59-.43-3.15-.43-1.42,0-2.07.44-2.91.84-1.91.91-3.02,4.05-3.25,4.84-.26.87-.33,1.35-.43,2.19-.03.24-.05.48-.07.72.07-.2.14-.4.23-.6.2-.58.68-1.45,1.06-1.89.42-.48.91-.87,1.47-1.16,6.35-3.35,21.69,4.65,34.07,15.29,14.95,12.85,22.46,25.79,18.27,31.48-.08.1-.16.21-.25.31.52-.16,1-.39,1.4-.68,1.2-.89,1.45-1.23,2.37-2.5l.31-.43c.96-1.31,1.28-2.86.9-4.25ZM112.74,228.49c-.3.41-.48.64-.49.65l.12.1c.13-.24.25-.49.37-.75ZM111.42,207.32c-1.3.97-3.14,1.63-5.42.96-6.81-1.99-11.1-12.21-12.16-15.01-.15.08-.33.14-.52.16-.04,0-.1,0-.18,0h-.41c-1.12,0-2.06-.81-2.33-2.01-.12-.54-.25-1.07-.38-1.6-.36.56-.92.94-1.59,1.04-.1,0-.21.02-.32.02-1.17,0-2.17-.88-2.33-2.04-.48-3.54-1.84-5.66-2.61-6.61-.36-.45-.62-.68-.64-.69-.15-.12-.35-.27-.53-.46-3.42-1.78-7.44-3.04-11.62-2.62-3.82.38-7.36,2.11-10.62,5.17,8.54.72,20.83,7.23,32.61,17.35,13.71,11.78,18.61,20.93,20.36,26.06h0s.28,1.04.28,1.04l.19.69c.12.42.18.85.21,1.28l.11-.02c-.09-.54-.24-1.2-.48-1.99h0c1.19-1.82,3.28-5.73,3.04-10.63-.01-.15-.02-.31-.03-.48-.37-4.62-2.17-8.45-3.25-10.37h0c-.07-.13-.14-.25-.2-.36-.32.38-.72.76-1.18,1.11ZM106.36,191.98c-.32-2.36-1.51-4.53-3.36-6.03-2.99-2.43-6.12-4.24-8.84-5.54-.28-.13-.6.02-.69.31-.12.4-.22.81-.3,1.21-.14.64-.22,1.27-.27,1.89-.03.48.04.96.2,1.41.1.3.22.64.3.9h.01c.41,1.32.75,2.73,1,4.22.08.49.24.96.51,1.38h0s.03.06.06.09c1.54,2.49,3.84,4.6,6.49,6.22-1.86-.91-3.55-2.02-4.99-3.32-.12-.11-.29.02-.23.16,1.81,3.99,5.41,10.5,10.2,11.9,1.64.48,2.92.05,3.82-.57.3-.19.4-.58.26-.9-.81-1.89-3.52-8.47-4.17-13.33ZM161.62,173.18l-12.39-19.91c-.05-.07-.08-.16-.1-.24-3.09,3.71-5.29,5.64-9.18,8.59t-.01,0c-2.14,2.49-4.62,3.8-7.88,4.16v.02c-5.83,2.82-13.46,5.54-21.12,5.54-3.76,0-7.53-.65-11.11-2.27-1.05-.47-2.01-.99-2.87-1.54-4.44,3.01-7.68,7.01-9,8.77,3.82,1.11,16.28,5.44,23.56,16.71.14.21.43.26.63.11,1.28-1.02,3.57-2.78,6.12-4.54,3.24-2.23,5.94-3.8,8.08-4.7.35-.15.36-.64.02-.81-1.51-.74-3.56-1.32-5.3-1.51,4.34.03,8.72.65,12.76,2.3.61.25,2.36,1.11,2.97,1.46.01,0,.01.01.02.01,2.08,1.05,3.9,2.15,4.6,2.57,1.89-.17,14.71-1.84,20.2-14.73ZM169.99,187.8c.23-1.01-.4-2.02-1.41-2.25-1.64-.38-3.23-.69-4.73-.92-.71,1.38-1.7,2.53-2.86,3.42,2.08.24,4.35.61,6.74,1.16.14.03.29.05.43.05.85,0,1.63-.59,1.83-1.46ZM167.88,190.56c-3.16-.73-6.11-1.16-8.71-1.41-1.31.62-2.76.95-4.24.95-.97,0-1.96-.14-2.93-.44l-2.27-.69h-.01c-.55.04-.87.07-.93.08-1.04.12-1.78,1.04-1.67,2.08.11.96.93,1.68,1.87,1.68.07,0,.14-.01.21-.02.04,0,1.49-.15,3.9-.15,3.26,0,8.28.28,13.93,1.58.14.04.28.05.42.05.86,0,1.64-.59,1.84-1.46.23-1.01-.4-2.02-1.41-2.25ZM170.69,182.79c.24-1.01-.39-2.02-1.41-2.25-1.11-.26-2.2-.48-3.26-.67l-1.61,3.54c1.29.21,2.64.47,4.02.79.15.03.29.05.43.05.86,0,1.63-.59,1.83-1.46ZM171.4,177.78c.23-1.01-.4-2.02-1.41-2.26-.61-.14-1.22-.27-1.81-.39l-1.6,3.53c.83.15,1.69.33,2.56.53.14.03.28.05.43.05.85,0,1.62-.59,1.83-1.46ZM170.31,166.68c1.77-3.83-.01-5.69-1.81-6.58-2.08-1.03-3.95-.42-5.57,1.8l-2.7,3.93c-.42.63-.44,1.44-.04,2.09l2.97,4.77c.13.21.16.48.06.71-2.98,7.31-8.13,11.24-12.28,13.32-.2.1-.3.29-.3.49s.1.39.31.49l1.5.46c2.02.61,4.11.44,5.92-.36,1.56-.7,2.91-1.87,3.82-3.41.1-.17.2-.34.29-.52l.31-.7,1.63-3.57.56-1.22,1.61-3.55,3.72-8.15ZM156.68,213.23c5.74.8,10.71-.41,14.78-3.61,5.38-4.24,8.87-11.81,9.81-21.33,1.43-14.36-.1-24.33-4.55-29.64-1.85-2.21-4.25-3.6-7.15-4.14h0c-.52-.1-1.06-.17-1.62-.22-1.07-.08-2.07,0-3.01.26-2.99.81-5.44,3.39-7.95,8.22l1.22,1.95c.2.32.67.33.88.02l2.57-3.74c2.09-2.88,4.76-3.68,7.54-2.3,1.25.61,5.13,3.05,2.54,8.63l-3.15,6.92c.58.12,1.11.24,1.62.36,1.51.35,2.46,1.87,2.11,3.39-.23.98-.94,1.74-1.86,2.04.32.21.59.5.8.83.4.64.53,1.4.36,2.14-.23.99-.95,1.74-1.87,2.04.94.63,1.43,1.8,1.16,2.97-.22.99-.94,1.74-1.86,2.04.93.63,1.43,1.79,1.17,2.95-.28,1.21-1.34,2.13-2.58,2.2-.29.02-.57-.01-.82-.07-5.57-1.29-10.53-1.56-13.71-1.56-2.35,0-3.78.15-3.79.15-.11.01-.21.02-.32.02-1.44,0-2.64-1.08-2.8-2.52-.13-1.18.49-2.27,1.49-2.8l.17-.03-.07-.02s-.07.03-.1.05c-1.06.17-2.19.33-2.56.43-2.51,7.23-2.46,13.57.16,17.9,2.14,3.54,5.98,5.72,11.4,6.47ZM179.67,156.45c1.66,1.63,3.06,3.82,4.17,6.5l.03.22.11.13c1.65,4.12,2.62,9.34,2.81,15.34l-.27.58.29.75c.03,1.87-.02,3.81-.15,5.81l-.45.82.31.97c-.03.4-.07.8-.11,1.2-.18,1.87-.46,3.67-.83,5.41l-.14.21.02.39c-.58,2.6-1.36,5.04-2.32,7.29l-.44.47-.08.68c-1.08,2.3-2.37,4.39-3.84,6.22l-.24.14-.1.27c-1.12,1.34-2.35,2.54-3.67,3.58-1.33,1.05-2.61,1.91-3.9,2.6,3.53-.89,5.95-1.89,5.95-1.89l1.62-4.29c.11-.13.23-.27.34-.41l3.33-1.95.51-4.27c.18-.38.35-.76.52-1.15l2.49-2.71-.17-4.58c.04-.2.09-.4.12-.6l2.1-3.06-1.16-3.55c.06-.6.1-1.2.14-1.79l1.43-2.58-1.28-3.23c0-.45-.01-.89-.02-1.33l1.47-3.17-2.07-3.98.64-4.97-2.85-3.22c-.04-.12-.09-.24-.14-.35l-.49-4.24s-1.29-.98-3.68-2.26ZM175.84,155.62c.75.59,1.44,1.26,2.08,2.02,4.73,5.65,6.38,16.01,4.91,30.81-.98,9.94-4.68,17.89-10.4,22.4-3.54,2.79-7.71,4.5-12.41,4.5-3.6,0-6.42-.54-8.69-1.41,2.6,1.67,5.92,2.8,10.01,2.8,4.75,0,8.36-1.31,12.46-4.55,6.09-4.79,10.02-13.16,11.05-23.57.94-9.43.26-17.67-1.97-23.83-1.64-4.54-4.09-7.71-7.04-9.17ZM159.58,36.52c0,1.35.12,2.93.32,4.29.13.85.33,1.42.94,2.05.41.43.9.83,1.37,1.19.71.49,1.32,1.13.85,1.98-.29.6-.72,1.39-1.32,1.49-.59.1-1.16-.28-1.67-.55-1.3-.83-2.31-.61-3.24.38-1.42,1.34-2.16,3.24-1.29,5.04,2.14,4.08,7.26,8.34,11.96,8.54,2.7.06,3.92-2.74,2.65-4.96-.54-1.05-1.44-1.84-2.36-2.57-.32-.28-.66-.59-.74-1.02-.09-.48.37-1.16.78-1.74.48-.73,1.06-1.12,1.92-.55,2.05,1.29,4.3,3.26,6.88,2.9,2.76-.62,4.63-4.45,3.76-7.08-.36-1.02-1.27-1.71-2.26-2.25-5.26-2.53-11.29-7.86-14.97-9.56-2.57-1.23-3.6-.06-3.59,2.37v.06ZM181.4,29.2c1.14-.99.78-2.9-.57-3.57-1.59-.83-3.57-.33-5.1.45-5.52,2.71-6.58,10.85-.84,13.7,2.2,1.07,4.13.2,6.08-.98,2.96-1.41,2.35,1.26,1.52,3.1-1.24,2.75-.1,6.36,3.05,6.99,1.74.37,3.5-.54,4.59-1.87,3.71-4.44,2.77-12.62-2.57-15.13-1.95-.94-4.27-.88-6.22,0-.97.38-1.99,1.21-3.03,1.22-.5-.02-.7-.45-.45-1.03.65-1.45,2.41-1.83,3.5-2.84l.04-.04ZM172.87,93.2c.68,1.78,1.91,3.67,3.99,3.8,2.12.18,4.9-.68,6.22-2.11.78-.88.83-2.11.57-3.32-2.17-6.37-6.14-13.49-8.86-20.65-.75-1.9-1.48-4.15-3.01-5.54-1.52-1.33-4.26-1.51-5.91-.29-1.35,1.19-.44,3.25-.15,4.83,1.85,7.65,4.31,16.13,7.13,23.24l.02.05ZM197.3,78.21c0-1.88,1.03-5.96-1.44-6.6-1.69-.21-2.74-.02-4.89.01-.57-.02-1.41.19-1.74-.36-.13-.31.05-.71.17-1.03,1.13-2.82,2.11-5.16,3.3-8.07.63-1.61,1.71-3.57.77-5.24-.41-.77-1.54-1.41-2.44-1.78-2.86-1.29-4.38-1.22-5.3,1.65-.71,2.34-1.5,5.17-2.25,7.61-.67,2.53-1.18-8.53-3.39-9.44-1.45-.8-3.9.22-5.07,1.24-2.92,6.91,9.04,32.32,11.75,35.26,2.01,1.45,4.99-.39,6.03-2.4,1.37-2.69-1.25-5.12-2.51-7.24-.36-.57-1.05-1.65.14-1.62,1.97-.13,6.42.84,6.86-1.93v-.05ZM197.46,87.93c-.16,3.2,2.72,4.33,5.45,4.57,2.92.2,7.37,1.1,9.54-1.26,1.21-1.58,1.39-3.89.67-5.71-1.39-3.29-7.02-.99-7.55-3.43-.05-.5.42-.97,1.01-1.07.72-.13,1.59.23,2.33.32.75.11,1.59.06,2.15-.5.96-1.03.92-3.54.4-5.01-.44-1.28-1.86-1.41-3.04-1.45-2.54.02-2.59-2.38-.13-2.53,2.79-.26,7.07,1.61,7.55-2.46.16-1.29-.04-2.85-.57-4.02-.5-1.05-1.29-1.35-2.6-1.6-3.22-.58-8.87-.14-11.03,1.45-1.01.72-1.23,1.94-1.5,3.1-1.32,6.15-2.32,13.52-2.67,19.54v.06ZM145.17,117.88s0,0-.01,0c-.01.07-.03.13-.04.2.06.1.11.22.15.34.03-.18,0-.36-.1-.53ZM202.81,131.92c-.4-2.07-2.1-4.16-4.11-4.6-2.83-.57-5.4,1.61-7.51,3.38-1.1,1-2.53,1.59-3.47.01-1.85-3.32-2.61-7.41-3.34-11.16-.93-4.77-1.36-9.78-2.37-14.58-.55-1.89-2.39-3.48-4.35-3.59-3.16-.28-5.97,2.36-5.67,5.58v.07c1.44,10.49,5,21.52,8.21,31.64.83,2.18,2.02,4.31,4.14,5.38,2.91,1.5,6.42.53,9.4-.62,3-1.19,5.95-2.84,7.76-5.53,1.17-1.73,1.76-3.93,1.31-5.98ZM185.27,111.08c.95,3.85,2.07,8.29,4.98,11.2,2.57,2.69,6.94,3.18,9.61.38,2.55-2.62,2.35-6.63,1.9-10.01-.55-3.73-1.53-7.78-2.79-11.07-.69-1.99-2.33-4.67-4.78-3.87-3.15,1.29-.86,6.87-.45,9.45.31,1.35.62,2.63.91,3.92.24,1.33,1.1,3.81.29,4.83-.64.33-.97-1.02-1.11-1.51-1.07-3.64-2.69-12.91-6.14-15.51-5.23-2.09-3.06,9.69-2.42,12.13v.06ZM202.65,104.37c1.46,5.81,2.62,12.41,3.89,18.22.71,2.45,1.21,8.62,3.71,9.67,2.04.84,4.04-.99,5.71-2.25,1.46-1.18,2.65-2.48,3.73-4.04,3.78-5.2,4.27-13.16-2.28-16.25-1.51-.75-.68-1.81-.11-3.12,1.14-2.6,1.38-5.8-.19-8.27-1.95-3.06-5.79-3.5-9.19-3.61-1.54-.02-3.39-.11-4.77.51-2.74,1.28-1.01,6.62-.51,9.08v.06ZM212.37,116.87c.2-1.1,1.67-.46,2.28-.06,1.02.6.74,1.86.07,2.75-.26.35-.61.77-1.07.8-.55,0-.73-.69-.85-1.14-.15-.72-.45-1.59-.44-2.29v-.06ZM209.34,101.45c.29-1.08,1.71-.27,2.28.17.96.68.59,1.91-.16,2.75-.28.32-.65.68-1.09.66-.58-.06-.71-.79-.8-1.28-.09-.71-.31-1.57-.25-2.24v-.06ZM142.31,28.34c-3.49,2.7-2.95,9.02.62,13.64,3.57,4.62,9.32,6.9,12.81,4.2s2.91-9.35-.66-13.97c-3.57-4.62-9.28-6.57-12.77-3.87ZM148.91,36.71c.81,1.11,1.22,2.18.93,2.39s-1.18-.51-1.99-1.62-1.22-2.18-.93-2.39,1.18.51,1.99,1.62ZM145.51,15.24c-1.58,0-2.87,1.45-2.87,3.24s1.28,3.24,2.87,3.24,2.87-1.45,2.87-3.24-1.28-3.24-2.87-3.24ZM175.55,11.26c-1.74.91-2.22,3.35.44,6.84,2.08,2.73,2.34,5.16,3.9,5.14,1.48-.02,1.71-4.02,1.01-7.16-.96-4.36-3.62-5.73-5.36-4.82ZM215.18,74.9c4.89,11.1,6.65,23.12,5.85,35.19,3.49-11.66,1.43-25.36-5.85-35.19h0ZM194.31,44.18c-.1,5.25.49,9.35,3.82,13.63,1.83,2.35,5.41,4.13,5.41,4.13,0,0-3.58-3.53-5.42-7.03-2.36-4.48-3.81-10.74-3.81-10.74h0ZM142.01,3.87c10.23-1.86,23.29-4.16,32.86.69.48.22,1.14.66,1.6.92.88.57,1.76,1.28,2.54,1.99,1.7,1.62,3.03,3.54,4.1,5.63,2.32,4.57,3.39,9.7,4.76,14.64-.44-3.88-.98-7.77-2.07-11.54-1.08-3.68-2.83-7.25-5.56-9.99-9.76-9.47-26.63-6.31-38.24-2.34h0ZM178.54,209.58l-.1.27c.11-.13.23-.27.34-.41l-.24.14ZM182.7,202.54l-.08.68c.18-.38.35-.76.52-1.15l-.44.47ZM183.84,162.95l.03.22.11.13c-.04-.12-.09-.24-.14-.35ZM185.44,194.39l.02.39c.04-.2.09-.4.12-.6l-.14.21ZM186.21,186.6l.31.97c.06-.6.1-1.2.14-1.79l-.45.82ZM186.79,178.64l-.27.58.29.75c0-.45-.01-.89-.02-1.33ZM108.68,61.95s-.02-.02-.03-.02c-.01-.01-.02-.02-.03-.03h.05s.01.05.01.05ZM94.94,191.72l-.02.02s.03.05.06.08c-.03-.06-.04-.09-.04-.1ZM112.25,229.14l.12.1c.13-.24.25-.49.37-.75-.3.41-.48.64-.49.65ZM58.23,183.62c-.06.02-.12.06,0,.06-.24-.01-.49,0-.74.02l.09-.09c.22-.01.43-.02.65-.04v.05ZM108.67,61.91h-.05s.02.01.03.02c.01,0,.02,0,.03.02v-.04ZM186.66,185.78c-.04.59-.08,1.19-.14,1.79l-.31-.97.45-.82ZM113.52,230.04l-.11.02c-.03-.43-.09-.86-.21-1.28l-.19-.69s.02-.03.03-.04c.24.79.39,1.45.48,1.99ZM112.74,228.49c-.12.26-.24.51-.37.75l-.12-.1s.19-.24.49-.65ZM111.73,139.49c-.15.15-.3.3-.45.46.02-.18.04-.46.07-.83.12.13.24.25.38.37ZM108.68,61.95s-.02-.02-.03-.02c-.01-.01-.02-.02-.03-.03h.05s.01.05.01.05ZM58.23,183.57v.11c-.24-.01-.49,0-.74.02l.09-.09c.22-.01.43-.02.65-.04ZM137.9,85.74c-1.45.11-2.85.98-4.16,2.29-1.19,1.18-2.3,2.72-3.31,4.37-.73,1.17-1.39,2.4-2,3.6-1.19,2.35-2.13,4.58-2.76,6.03,1.63-2.17,2.38-3,3.74-4.15.1-.08.2-.17.3-.25,2.01-1.7,4.68-1.99,6.21.2.07.1.14.2.2.31,1.63,3.12-3.76,6.41-6.03,7.75,2.84-1.02,7.1-3.07,7.6-6.41.09-1-.24-1.99-.83-2.82,1.01-1.45,1.68-3.13,1.68-4.36,0-2.16-1.31-3.76-3.43-4.17,1.8-1.65,3.75-2.38,5.54-.75.4.33.74.74,1.06,1.15-.64-1.44-2.04-2.91-3.81-2.79ZM105.22,115.79c-.25.27-.53.53-.82.77-.22.2-.45.39-.67.59-.63.45-1.44,1.06-2.13,1.42-3.08,1.75-6.6,2.68-10.12,2.95-.93.07-1.86.09-2.78.07,0,0,1.32-.41.93-1.37-.3-.74-1.91-1.02-3.33-1.12-1.14.27-2.16.42-3.01.51-1.97.2-2.82.21-3.06.21h-.07c-.11,0-.22-.04-.31-.12l-1.72-1.59c-.08-.08-.13-.18-.14-.29-1.4.16-2.81.19-4.2.11,1.49-.08,2.99-.27,4.46-.59.14-.03.27-.06.41-.1h.02s.08-.02.11-.03c.01,0,.02-.01.03-.01.27-.05.53-.12.79-.2.59-.15,1.17-.34,1.73-.55.19-.07.38-.14.56-.23.15-.05.29-.11.43-.17.32-.14.63-.29.94-.44,3.51-1.89,6.37-4.76,8.87-7.83,1.95-2.3,3.44-4.88,5.95-6.75,2.79-2.12,6.96-1.19,8.84,1.69,2.7,4.05,1.55,9.71-1.71,13.07ZM103.39,115.9c-1.33-.25-3.75.23-6.32,1.33-2.81,1.21-4.95,2.47-5.49,3.64,2.49-.25,3.83-.52,5.64-1.23,2.26-.87,4.4-2.1,6.17-3.74ZM105.26,103.17l-.43-.52c-.22-.19-.45-.36-.7-.51-1.03-.61-2.27-.86-3.44-.63-2.01.48-3.32,2.17-4.68,3.74-.93,1.12-1.85,2.28-2.82,3.41-.88,1.03-1.81,2.02-2.79,2.96-1.8,1.82-3.85,3.55-6.2,4.65-2.07.95-3.79,1.49-4.78,1.75l.94.86c.32,0,1.16-.04,2.84-.21,11.82-1.18,19.25-11,22.06-15.5Z"/>
</svg>